<?xml version="1.0" encoding="UTF-8"?>
<svg width="1920px" height="322px" viewBox="0 0 1920 322" version="1.1" xmlns="http://www.w3.org/2000/svg" xmlns:xlink="http://www.w3.org/1999/xlink">
    <!-- Generator: Sketch 53.2 (72643) - https://sketchapp.com -->
    <title>Bitmap</title>
    <desc>Created with Sketch.</desc>
    <defs>
        <rect id="path-1" x="0" y="0" width="1920" height="322"></rect>
        <rect id="path-3" x="0" y="0" width="3509.48639" height="1617.48837"></rect>
        <linearGradient x1="53.1534037%" y1="69.4925589%" x2="44.1470796%" y2="14.5314808%" id="linearGradient-5">
            <stop stop-color="#FFAA88" offset="0%"></stop>
            <stop stop-color="#FFAA88" offset="25.14%"></stop>
            <stop stop-color="#E592AF" offset="29.93%"></stop>
            <stop stop-color="#C475E1" offset="36.61%"></stop>
            <stop stop-color="#B769F4" offset="39.91%"></stop>
            <stop stop-color="#B467F1" offset="40.59%"></stop>
            <stop stop-color="#7D4CC4" offset="53.68%"></stop>
            <stop stop-color="#5538A3" offset="64.96%"></stop>
            <stop stop-color="#3C2C8E" offset="73.87%"></stop>
            <stop stop-color="#332787" offset="79.31%"></stop>
            <stop stop-color="#332787" offset="100%"></stop>
        </linearGradient>
        <polygon id="path-6" points="3429.1746 17.5362698 3428.09791 17.7631674 2223.21824 265.688191 2221.15442 266.115028 1968.15603 318.166702 1964.90034 318.840656 1713.53254 370.555353 1705.72694 372.14813 1186.40763 478.99447 1181.34404 480.05033 1028.15682 511.568888 1025.9632 512.018191 659.940796 587.319014 659.244324 587.478516 0 723.120642 0 819.976744 3509.48639 819.976744 3509.48639 1.01093023"></polygon>
        <linearGradient x1="31.1965143%" y1="3.95915952%" x2="67.7544583%" y2="93.384996%" id="linearGradient-8">
            <stop stop-color="#FFC388" offset="0%"></stop>
            <stop stop-color="#FFC388" offset="32.33%"></stop>
            <stop stop-color="#E5A2AF" offset="39.12%"></stop>
            <stop stop-color="#C479E1" offset="48.58%"></stop>
            <stop stop-color="#B769F4" offset="53.26%"></stop>
            <stop stop-color="#B467F1" offset="53.7%"></stop>
            <stop stop-color="#7D4CC4" offset="62.36%"></stop>
            <stop stop-color="#5538A3" offset="69.82%"></stop>
            <stop stop-color="#3C2C8E" offset="75.72%"></stop>
            <stop stop-color="#332787" offset="79.31%"></stop>
            <stop stop-color="#332787" offset="100%"></stop>
        </linearGradient>
    </defs>
    <g id="Page-1" stroke="none" stroke-width="1" fill="none" fill-rule="evenodd">
        <g id="Homepage-NEW-Padding-Copy-3" transform="translate(0.000000, -1428.000000)">
            <g id="Domain-Search-Block" transform="translate(0.000000, 1428.000000)">
                <g id="Group-20">
                    <g id="Bitmap">
                        <mask id="mask-2" fill="white">
                            <use xlink:href="#path-1"></use>
                        </mask>
                        <use id="Mask" fill="#F8F8F8" fill-rule="nonzero" xlink:href="#path-1"></use>
                        <g id="bottom-bg" mask="url(#mask-2)">
                            <g transform="translate(-1638.000000, -1229.007634)">
                                <g id="Clipped" transform="translate(120.648649, 0.000000)">
                                    <mask id="mask-4" fill="white">
                                        <use xlink:href="#path-3"></use>
                                    </mask>
                                    <g id="SVGID_4_"></g>
                                    <polygon id="Path" fill="url(#linearGradient-5)" fill-rule="nonzero" mask="url(#mask-4)" points="75.7874595 2244.40665 -191.315853 34.9310093 3433.69893 -626.918274 3700.80041 1582.55736"></polygon>
                                </g>
                                <g id="Clipped" transform="translate(120.648649, 797.511628)">
                                    <mask id="mask-7" fill="white">
                                        <use xlink:href="#path-6"></use>
                                    </mask>
                                    <g id="SVGID_7_"></g>
                                    <polygon id="Path" fill="url(#linearGradient-8)" fill-rule="nonzero" mask="url(#mask-7)" points="2692.98752 -1821.31213 3791.05657 629.441107 816.49887 2642.2998 -281.570182 191.548814"></polygon>
                                </g>
                                <g id="Group" transform="translate(0.000000, 813.237209)">
                                    <polygon id="Path" fill="#FFFFFF" fill-rule="nonzero" points="3716.00763 117.802577 1301.99452 464.326995 1307.0581 463.268888 3715.96924 117.485819"></polygon>
                                    <polygon id="Path" fill="#FFFFFF" fill-rule="nonzero" points="3719.82817 336.880144 3719.80989 336.880144 1146.61185 496.292609 1148.80546 495.843307 3719.80989 336.565633"></polygon>
                                    <polygon id="Path" fill="#FFFFFF" fill-rule="nonzero" points="992.693425 527.968423 3719.80989 722.491619 3719.82817 722.179353 3719.80989 722.179353 993.845071 527.721307"></polygon>
                                    <polygon id="Path" fill="#FFFFFF" fill-rule="nonzero" points="2786.53775 1115.58847 2786.49936 1115.74573 2786.48291 1115.88052 2785.98935 1115.74573 779.894801 571.752935 780.591273 571.595679"></polygon>
                                    <polygon id="Path" fill="#FFFFFF" fill-rule="nonzero" points="1834.18119 354.829772 1.32713514 808.892456 1.30885504 808.782377 1.27229484 808.580191 1.30885504 808.580191 1826.37559 356.424795"></polygon>
                                    <polygon id="Path" fill="#FFFFFF" fill-rule="nonzero" points="2088.80468 302.441121 1.32713514 947.392144 1.30885504 947.279819 1.27229484 947.077633 1.30885504 947.052921 2085.55082 303.115074"></polygon>
                                    <polygon id="Path" fill="#FFFFFF" fill-rule="nonzero" points="3549.82325 1.81293488 1466.40572 1115.74573 1461.87043 1118.17196 1461.76075 1117.87767 1465.74398 1115.74573 3548.74473 2.03533953"></polygon>
                                    <polygon id="Path" fill="#FFFFFF" fill-rule="nonzero" points="598.960216 1115.88501 598.8743 1115.58398 2771.23182 162.016172 2772.68692 161.712893"></polygon>
                                    <polygon id="Path" fill="#FFFFFF" fill-rule="nonzero" points="2343.86689 249.962609 15.6952924 1111.69976 15.622172 1111.38749 2341.80124 250.389447"></polygon>
                                </g>
                            </g>
                        </g>
                        <rect id="Rectangle" fill-opacity="0.200524" fill="#000000" mask="url(#mask-2)" x="0" y="0" width="1920" height="323.229008"></rect>
                    </g>
                </g>
            </g>
        </g>
    </g>
</svg>